<?xml version="1.0" encoding="utf-8"?>
<!-- Generator: Adobe Illustrator 26.0.3, SVG Export Plug-In . SVG Version: 6.00 Build 0)  -->
<svg version="1.1" id="Layer_1" xmlns="http://www.w3.org/2000/svg" xmlns:xlink="http://www.w3.org/1999/xlink" x="0px" y="0px"
	 viewBox="0 0 26 26" style="enable-background:new 0 0 26 26;" xml:space="preserve">
<style type="text/css">
	.st0{fill:#FF8400;}
	.st1{fill:#FFFFFF;}
</style>
<g>
	<path class="st0" d="M25.8,8.8c-0.4-4.6-4-8.2-8.6-8.6l-0.9-0.1C14.1,0,11.9,0,9.7,0.1L8.8,0.2c-4.6,0.4-8.2,4-8.6,8.6L0.1,9.7
		c-0.2,2.2-0.2,4.4,0,6.6l0.1,0.9c0.4,4.6,4,8.2,8.6,8.6l0.9,0.1c2.2,0.2,4.5,0.2,6.7,0l0.9-0.1c4.6-0.4,8.2-4,8.6-8.6l0.1-0.9
		c0.2-2.2,0.2-4.4,0-6.6L25.8,8.8z"/>
	<g id="Shape_525">
		<g>
			<path class="st1" d="M17,9.6l-0.1-0.2c0-2.2-1.7-3.9-3.9-3.9c-2.2,0-3.9,1.7-3.9,3.9L9,9.6H5.8l0.9,8c0.2,1.6,1.6,2.9,3.2,2.9
				h6.2c1.6,0,3-1.2,3.2-2.9l0.9-8H17z M10.7,9.6l0.1-0.2c0-1.2,1-2.2,2.2-2.2c1.2,0,2.2,1,2.2,2.2l0.1,0.2H10.7z"/>
		</g>
	</g>
</g>
</svg>
