<?xml version="1.0" encoding="utf-8"?>
<!-- Generator: Adobe Illustrator 26.0.3, SVG Export Plug-In . SVG Version: 6.00 Build 0)  -->
<svg version="1.1" id="Layer_1" xmlns="http://www.w3.org/2000/svg" xmlns:xlink="http://www.w3.org/1999/xlink" x="0px" y="0px"
	 viewBox="0 0 26 26" style="enable-background:new 0 0 26 26;" xml:space="preserve">
<style type="text/css">
	.st0{fill:#FF8400;}
	.st1{fill:#FFFFFF;}
	.st2{clip-path:url(#SVGID_00000101081332691983467060000009645719725508147114_);}
	.st3{fill:url(#SVGID_00000024691795099498274000000003828327695210122682_);}
	.st4{fill:url(#SVGID_00000170248154905519422020000012242425561516787368_);}
</style>
<g>
	<path class="st0" d="M13,0C2.7,0,0,2.7,0,13c0,10.3,2.7,13,13,13c10.3,0,13-2.7,13-13C26,2.7,23.3,0,13,0z"/>
	<g>
		
			<image style="overflow:visible;opacity:0.3;" width="78" height="108" xlink:href="6CE8B56A10710BA0.png"  transform="matrix(0.24 0 0 0.24 3.4005 0.834)">
		</image>
		<g>
			<g>
				<g>
					<path class="st1" d="M13.2,5.5L8.5,8.2c-0.8,0.5-1.1,1.5-0.6,2.4c0.5,0.8,1.5,1.1,2.4,0.6l3.9-2.3l-1.9,2v7.9
						c0,1,0.8,1.7,1.7,1.7c1,0,1.7-0.8,1.7-1.7V7c0-0.3-0.1-0.7-0.2-0.9C15.1,5.3,14,5,13.2,5.5z"/>
				</g>
				<g>
					<path class="st1" d="M15.6,7C15.6,7,15.6,6.9,15.6,7L15.6,7z"/>
				</g>
			</g>
		</g>
	</g>
	<g>
		<defs>
			<path id="SVGID_1_" d="M13,0C2.7,0,0,2.7,0,13s2.7,13,13,13c10.3,0,13-2.7,13-13S23.3,0,13,0z"/>
		</defs>
		<clipPath id="SVGID_00000041988155082383790670000015533419424988501894_">
			<use xlink:href="#SVGID_1_"  style="overflow:visible;"/>
		</clipPath>
		<g style="clip-path:url(#SVGID_00000041988155082383790670000015533419424988501894_);">
			
				<linearGradient id="SVGID_00000065793799413288888760000001023177406763823241_" gradientUnits="userSpaceOnUse" x1="6.3174" y1="4.9478" x2="19.3391" y2="16.1419">
				<stop  offset="0" style="stop-color:#FFFFFF;stop-opacity:0.5"/>
				<stop  offset="1" style="stop-color:#FFFFFF;stop-opacity:0"/>
			</linearGradient>
			<polygon style="fill:url(#SVGID_00000065793799413288888760000001023177406763823241_);" points="9.1,26 26,26 26,3.2 9.1,14.9 
							"/>
			
				<linearGradient id="SVGID_00000046338565454535450950000011689784320719549604_" gradientUnits="userSpaceOnUse" x1="17.3254" y1="-1.3905" x2="4.3637" y2="15.4953">
				<stop  offset="0" style="stop-color:#FFFFFF;stop-opacity:0.5"/>
				<stop  offset="1" style="stop-color:#FFFFFF;stop-opacity:0"/>
			</linearGradient>
			<polygon style="fill:url(#SVGID_00000046338565454535450950000011689784320719549604_);" points="9.1,26 0,26 0,4.5 9.1,14.9 			
				"/>
		</g>
	</g>
</g>
</svg>
