<svg width="13" height="25" viewBox="0 0 13 25" fill="none" xmlns="http://www.w3.org/2000/svg">
<path d="M2.61785 24.0674L12.5831 13.5574C12.8555 13.269 12.9997 12.9005 12.9997 12.5C12.9997 12.0995 12.8555 11.715 12.5831 11.4426L2.61785 0.932578C2.34548 0.644193 1.99305 0.5 1.60854 0.5C1.22403 0.5 0.871551 0.660214 0.599188 0.932578C0.326825 1.22096 0.182617 1.58945 0.182617 1.98999C0.182617 2.39052 0.326825 2.77503 0.599188 3.0474L9.55512 12.5L0.599188 21.9526C0.326825 22.241 0.182617 22.6095 0.182617 23.01C0.182617 23.4105 0.326825 23.7951 0.599188 24.0674C0.871551 24.3558 1.22403 24.5 1.60854 24.5C1.99305 24.5 2.34548 24.3398 2.61785 24.0674Z" fill="#999999"/>
</svg>
