<svg width="24" height="13" viewBox="0 0 24 13" fill="none" xmlns="http://www.w3.org/2000/svg">
<path d="M0.432577 2.52654L10.9426 12.4918C11.231 12.7642 11.5995 12.9084 12 12.9084C12.4005 12.9084 12.785 12.7642 13.0574 12.4918L23.5674 2.52654C23.8558 2.25417 24 1.90175 24 1.51723C24 1.13272 23.8398 0.780243 23.5674 0.50788C23.279 0.235517 22.9105 0.0913086 22.51 0.0913086C22.1095 0.0913086 21.725 0.235517 21.4526 0.50788L12 9.46382L2.5474 0.50788C2.25901 0.235517 1.89052 0.0913086 1.48999 0.0913086C1.08945 0.0913086 0.704941 0.235517 0.432577 0.50788C0.144192 0.780243 0 1.13272 0 1.51723C0 1.90175 0.160213 2.25417 0.432577 2.52654Z" fill="white"/>
</svg>
